# xmcd CD database file
#
# Track frame offsets:
#	150
#	27639
#	53401
#	79430
#	108546
#	134557
#	159761
#	184553
#	209949
#	236135
#	257304
#	284604
#
# Disc length: 4033 seconds
#
# Revision: 0
# Processed by: cddbd v1.4PL0 Copyright (c) Steve Scherf et al.
# Submitted via: CDex 1.50beta10
#
DISCID=af0fbf0c
DTITLE=Vancouver,BC Artists - Jazz Vancouver
DYEAR=1999
DGENRE=Jazz
TTITLE0=Brad Truner Quartet - Nomad
TTITLE1=Christine Duncan - Why So Blue
TTITLE2=Oliver Gannon Quartet - Quicksilver
TTITLE3=Pat Coleman and the Bob Murphy Quartet - Alone Together
TTITLE4=Ross Taggart - TV Lunch
TTITLE5=Ingrid Jensen - Fallin'
TTITLE6=Ian McDougal - Ian Leaps Out
TTITLE7=Miles and Miles Duo (Miles Black/Miles Hill) - Sweet And Lovely
TTITLE8=Metalwood - Teed
TTITLE9=Diano Krall - As Long As I Live
TTITLE10=Fraser MacPherson Quartet - Blue Prelude
TTITLE11=Kenny Colman with The London Philharmonic Orchestra featuring Toots Thielemans - You Again
EXTD=YEAR: 1999
EXTT0=
EXTT1=
EXTT2=
EXTT3=
EXTT4=
EXTT5=
EXTT6=
EXTT7=
EXTT8=
EXTT9=
EXTT10=
EXTT11=
PLAYORDER=
